<svg width="186" height="124" viewBox="0 0 186 124" fill="none" xmlns="http://www.w3.org/2000/svg">
<path d="M92.4906 61.2085C84.8452 54.6941 79.1225 48.6547 75.3224 43.0902C71.5223 37.5258 69.6223 32.3912 69.6223 27.6864C69.6223 20.5386 71.9181 14.8498 76.5099 10.6199C81.1017 6.39007 86.4286 4.27515 92.4906 4.27515C98.5526 4.27515 103.88 6.39007 108.471 10.6199C113.063 14.8498 115.359 20.5386 115.359 27.6864C115.359 32.3912 113.459 37.5258 109.659 43.0902C105.859 48.6547 100.136 54.6941 92.4906 61.2085Z" fill="url(#paint0_linear_3521_14592)"/>
<path d="M88.7907 38.0007V36.1515L90.8043 34.6771V29.1795L81.9951 31.7534V29.4544L90.8043 24.3066V18.684C90.8043 18.2176 90.9679 17.8219 91.2951 17.4971C91.6222 17.1722 92.0208 17.0098 92.4906 17.0098C92.9604 17.0098 93.3589 17.1722 93.6861 17.4971C94.0133 17.8219 94.1769 18.2176 94.1769 18.684V24.3066L102.986 29.4544V31.7534L94.1769 29.1795V34.6771L96.1904 36.1515V38.0007L92.4906 36.9761L88.7907 38.0007Z" fill="white"/>
<path d="M0.834106 95.0151C1.41317 95.2698 2.15436 95.4667 3.0577 95.6057C3.96103 95.7215 4.89911 95.791 5.87193 95.8142C6.84475 95.8373 7.70176 95.8489 8.44295 95.8489C8.7209 95.8489 9.06834 95.8489 9.48526 95.8489C9.92535 95.8489 10.2844 95.8373 10.5623 95.8142C11.1877 95.8142 11.7204 95.7562 12.1605 95.6404C12.6006 95.5015 12.9249 95.293 13.1333 95.0151C13.365 94.7371 13.4808 94.3433 13.4808 93.8338C13.4808 93.2315 13.3071 92.8378 12.9596 92.6525C12.6122 92.444 12.0794 92.3398 11.3614 92.3398C11.1066 92.3398 10.8055 92.3398 10.4581 92.3398C10.1338 92.3398 9.71688 92.3398 9.20731 92.3398C8.69774 92.3398 8.03761 92.3398 7.22693 92.3398C6.48573 92.3398 5.73295 92.3051 4.96859 92.2356C4.2274 92.1661 3.55569 92.0039 2.95347 91.7492C2.35124 91.4712 1.86483 91.0427 1.49423 90.4636C1.1468 89.8614 0.973081 89.0392 0.973081 87.9968C0.973081 86.7461 1.18154 85.7733 1.59847 85.0784C2.03855 84.3604 2.64077 83.8276 3.40513 83.4802C4.19265 83.1327 5.11915 82.9127 6.18462 82.8201C7.27325 82.7274 8.46611 82.6811 9.76321 82.6811C10.5507 82.6811 11.3962 82.6927 12.2995 82.7158C13.226 82.739 14.083 82.7737 14.8705 82.8201C15.6812 82.8664 16.3066 82.9474 16.7467 83.0633C17.5342 83.1096 18.1364 83.318 18.5533 83.6886C18.9934 84.0592 19.2135 84.5225 19.2135 85.0784C19.2135 85.171 19.2135 85.3332 19.2135 85.5648C19.2135 85.7733 19.2135 85.9817 19.2135 86.1902C19.2135 86.3986 19.2135 86.5145 19.2135 86.5376C19.0282 86.3755 18.6807 86.2481 18.1712 86.1554C17.6847 86.0396 17.1057 85.9586 16.434 85.9122C15.7854 85.8659 15.1369 85.8312 14.4883 85.808C13.863 85.7848 13.3071 85.7733 12.8206 85.7733H9.69372C9.06834 85.7733 8.5356 85.8312 8.09552 85.947C7.67859 86.0396 7.3659 86.2133 7.15744 86.4681C6.94898 86.7229 6.84475 87.0819 6.84475 87.5452C6.84475 87.9158 6.91423 88.2169 7.05321 88.4485C7.19218 88.657 7.41223 88.8075 7.71334 88.9002C8.01445 88.9928 8.40821 89.0392 8.89462 89.0392C10.3075 89.0392 11.4425 89.0392 12.2995 89.0392C13.1565 89.0392 13.7124 89.0392 13.9672 89.0392C15.079 89.0392 16.0518 89.1318 16.8856 89.3171C17.7195 89.5024 18.368 89.9193 18.8313 90.5679C19.2945 91.2164 19.5262 92.2124 19.5262 93.5558C19.5262 94.8298 19.2714 95.8489 18.7618 96.6133C18.2522 97.3545 17.5458 97.8988 16.6424 98.2462C15.7623 98.5936 14.7315 98.8021 13.5503 98.8716C12.4385 98.9411 11.3846 98.9758 10.3886 98.9758C9.39261 98.9758 8.33872 98.9758 7.22693 98.9758C6.30043 98.9527 5.44342 98.9063 4.6559 98.8368C3.89154 98.7905 3.21983 98.6979 2.64077 98.5589C2.06171 98.3968 1.61005 98.1883 1.28577 97.9335C0.984662 97.6556 0.834106 97.2965 0.834106 96.8565V95.0151Z" fill="#37393D"/>
<path d="M23.1137 98.8021L23.079 83.0633C23.079 82.3684 23.1832 81.8936 23.3916 81.6388C23.6233 81.384 24.1213 81.2566 24.8856 81.2566H28.3252V90.5679L33.0156 85.947C33.4557 85.5532 33.8958 85.2753 34.3359 85.1131C34.7991 84.9278 35.494 84.8352 36.4205 84.8352C37.1154 84.8352 37.7407 84.8468 38.2966 84.8699C38.8757 84.8931 39.4084 84.9162 39.8949 84.9394C39.779 85.0089 39.5706 85.1595 39.2695 85.3911C38.9684 85.5995 38.6557 85.8312 38.3314 86.0859C38.0071 86.3176 37.706 86.526 37.4281 86.7113L33.0851 90.4289L39.3042 97.0302C39.6516 97.3545 39.9991 97.6787 40.3465 98.003C40.694 98.3041 41.0182 98.5705 41.3193 98.8021C40.3465 98.8253 39.3737 98.8368 38.4009 98.8368C37.4512 98.8368 36.5826 98.8368 35.7951 98.8368C34.9844 98.8368 34.3822 98.7442 33.9884 98.5589C33.5947 98.3736 33.2009 98.0841 32.8072 97.6903L29.5065 94.1812L28.3252 94.6676V98.8021H23.1137Z" fill="#37393D"/>
<path d="M50.0001 102.659C48.6798 102.659 47.4522 102.601 46.3173 102.485C45.1823 102.369 44.2674 102.172 43.5725 101.894C42.9008 101.639 42.5649 101.304 42.5649 100.887V99.3927C42.9355 99.6012 43.4567 99.7749 44.1284 99.9139C44.8001 100.053 45.5182 100.157 46.2825 100.227C47.0469 100.319 47.7533 100.366 48.4019 100.366C49.5137 100.366 50.3823 100.238 51.0076 99.9834C51.633 99.7518 52.0731 99.3696 52.3279 98.8368C52.6058 98.3041 52.7448 97.6208 52.7448 96.787V95.432C52.49 95.8952 52.1426 96.2658 51.7025 96.5438C51.2856 96.7986 50.7413 96.9839 50.0696 97.0997C49.421 97.1923 48.5988 97.2386 47.6028 97.2386C46.0972 97.2386 44.9738 97.007 44.2326 96.5438C43.4914 96.0574 43.005 95.3856 42.7734 94.5286C42.5649 93.6716 42.4607 92.6756 42.4607 91.5407V86.7461C42.4607 86.3986 42.4839 86.0859 42.5302 85.808C42.5997 85.5301 42.7618 85.3216 43.0166 85.1826C43.2714 85.0205 43.6767 84.9394 44.2326 84.9394H47.7417C47.7417 85.5416 47.7417 86.0628 47.7417 86.5029C47.7417 86.943 47.7417 87.3599 47.7417 87.7536C47.7417 88.1242 47.7417 88.5296 47.7417 88.9697C47.7417 89.4098 47.7417 89.9309 47.7417 90.5331C47.7417 91.8534 47.8228 92.8146 47.9849 93.4168C48.1702 94.0191 48.4482 94.4012 48.8188 94.5634C49.1894 94.7255 49.6526 94.8066 50.2085 94.8066C50.7876 94.8066 51.2508 94.7139 51.5983 94.5286C51.9457 94.3433 52.2005 93.9612 52.3626 93.3821C52.5479 92.803 52.6406 91.9113 52.6406 90.7068V84.9394H56.2539C56.8098 84.9394 57.2267 85.0321 57.5047 85.2174C57.8058 85.3795 57.9564 85.7848 57.9564 86.4334V96.4743C57.9564 98.5589 57.3426 100.111 56.1149 101.13C54.8873 102.149 52.8491 102.659 50.0001 102.659Z" fill="#37393D"/>
<path d="M60.8634 90.8111C60.8634 89.1897 61.0487 87.8579 61.4193 86.8156C61.7899 85.7501 62.4153 84.9162 63.2955 84.314C64.1756 83.7118 65.3453 83.2833 66.8046 83.0285C68.287 82.7737 70.1168 82.6463 72.2941 82.6463C73.2206 82.6463 74.0891 82.6811 74.8998 82.7506C75.7337 82.7969 76.6023 82.8895 77.5056 83.0285C78.4784 83.1443 79.1154 83.3759 79.4165 83.7234C79.7176 84.0708 79.8682 84.5457 79.8682 85.1479V86.9198C79.1964 86.665 78.4089 86.4565 77.5056 86.2944C76.6254 86.1323 75.7453 86.0165 74.8651 85.947C73.9849 85.8543 73.209 85.808 72.5373 85.808C71.1707 85.808 70.0473 85.9238 69.1671 86.1554C68.3101 86.3871 67.6847 86.8619 67.291 87.5799C66.8972 88.298 66.7003 89.3866 66.7003 90.8458C66.7003 92.2356 66.8972 93.2895 67.291 94.0075C67.6847 94.7255 68.3449 95.2119 69.2714 95.4667C70.1979 95.7215 71.4255 95.8489 72.9542 95.8489C73.6027 95.8489 74.286 95.8142 75.0041 95.7447C75.7453 95.652 76.5096 95.5362 77.2971 95.3972C78.1078 95.2583 78.9648 95.0845 79.8682 94.8761V96.509C79.8682 97.0649 79.706 97.5282 79.3817 97.8988C79.0575 98.2462 78.3973 98.4894 77.4014 98.6284C76.5212 98.7674 75.641 98.86 74.7609 98.9063C73.9038 98.9527 73.0121 98.9758 72.0856 98.9758C69.8852 98.9758 68.0553 98.86 66.5961 98.6284C65.16 98.3736 64.0135 97.9451 63.1565 97.3429C62.3226 96.7407 61.732 95.9184 61.3846 94.8761C61.0371 93.8106 60.8634 92.4556 60.8634 90.8111Z" fill="#37393D"/>
<path d="M90.827 99.0106C89.5068 99.0106 88.3371 98.9179 87.3179 98.7326C86.2988 98.5473 85.4418 98.1999 84.7469 97.6903C84.0752 97.1807 83.5656 96.4627 83.2182 95.5362C82.8708 94.5865 82.697 93.3705 82.697 91.8881C82.697 90.4057 82.8708 89.2013 83.2182 88.2748C83.5656 87.3251 84.0752 86.5955 84.7469 86.0859C85.4418 85.5764 86.2988 85.2289 87.3179 85.0436C88.3371 84.8583 89.5068 84.7657 90.827 84.7657C92.1705 84.7657 93.3402 84.8583 94.3362 85.0436C95.3321 85.2289 96.166 85.5764 96.8377 86.0859C97.5094 86.5955 98.019 87.3251 98.3664 88.2748C98.7138 89.2013 98.8876 90.4057 98.8876 91.8881C98.8876 93.3705 98.7138 94.5865 98.3664 95.5362C98.019 96.4859 97.4978 97.2155 96.8029 97.7251C96.1312 98.2115 95.2974 98.5473 94.3014 98.7326C93.3054 98.9179 92.1473 99.0106 90.827 99.0106ZM90.827 96.4743C91.4756 96.4743 91.9967 96.3585 92.3905 96.1268C92.8074 95.8721 93.1201 95.4204 93.3286 94.7718C93.537 94.1001 93.6413 93.1389 93.6413 91.8881C93.6413 90.6374 93.537 89.6877 93.3286 89.0392C93.1201 88.3674 92.8074 87.9158 92.3905 87.6842C91.9967 87.4294 91.4756 87.302 90.827 87.302C90.2248 87.302 89.7037 87.4294 89.2636 87.6842C88.8235 87.9158 88.4876 88.3674 88.256 89.0392C88.0476 89.6877 87.9433 90.6374 87.9433 91.8881C87.9433 93.1389 88.0476 94.1001 88.256 94.7718C88.4876 95.4204 88.8235 95.8721 89.2636 96.1268C89.7037 96.3585 90.2248 96.4743 90.827 96.4743Z" fill="#37393D"/>
<path d="M103.587 98.8021C102.707 98.8021 102.267 98.3504 102.267 97.4471V85.7733C102.962 85.5416 104.004 85.3332 105.394 85.1479C106.784 84.9394 108.313 84.8352 109.98 84.8352C111.764 84.8352 113.165 84.9394 114.184 85.1479C115.227 85.3332 115.991 85.669 116.477 86.1554C116.987 86.6187 117.311 87.2441 117.45 88.0316C117.612 88.8191 117.693 89.8035 117.693 90.9848V96.8565C117.693 97.366 117.659 97.7714 117.589 98.0725C117.52 98.3504 117.334 98.5473 117.033 98.6631C116.755 98.7789 116.315 98.8368 115.713 98.8368L112.551 98.8021V89.7688C112.551 89.0044 112.32 88.4601 111.856 88.1358C111.393 87.8115 110.768 87.6494 109.98 87.6494C109.702 87.6494 109.401 87.6842 109.077 87.7536C108.753 87.8 108.44 87.8695 108.139 87.9621C107.861 88.0316 107.629 88.1358 107.444 88.2748V98.8021H103.587Z" fill="#37393D"/>
<path d="M122.604 98.8021C121.724 98.8021 121.284 98.3504 121.284 97.4471V85.7733C121.979 85.5416 123.021 85.3332 124.411 85.1479C125.801 84.9394 127.329 84.8352 128.997 84.8352C130.78 84.8352 132.182 84.9394 133.201 85.1479C134.243 85.3332 135.008 85.669 135.494 86.1554C136.004 86.6187 136.328 87.2441 136.467 88.0316C136.629 88.8191 136.71 89.8035 136.71 90.9848V96.8565C136.71 97.366 136.675 97.7714 136.606 98.0725C136.536 98.3504 136.351 98.5473 136.05 98.6631C135.772 98.7789 135.332 98.8368 134.73 98.8368L131.568 98.8021V89.7688C131.568 89.0044 131.336 88.4601 130.873 88.1358C130.41 87.8115 129.784 87.6494 128.997 87.6494C128.719 87.6494 128.418 87.6842 128.094 87.7536C127.769 87.8 127.457 87.8695 127.156 87.9621C126.878 88.0316 126.646 88.1358 126.461 88.2748V98.8021H122.604Z" fill="#37393D"/>
<path d="M147.979 99.0106C146.358 99.0106 145.026 98.9179 143.983 98.7326C142.941 98.5242 142.119 98.1767 141.517 97.6903C140.914 97.2039 140.486 96.5206 140.231 95.6404C139.976 94.7603 139.849 93.6137 139.849 92.2008C139.849 90.3942 140.104 88.9581 140.613 87.8926C141.123 86.8271 142.003 86.0512 143.254 85.5648C144.528 85.0784 146.288 84.8352 148.535 84.8352C150.295 84.8352 151.696 85.0205 152.739 85.3911C153.781 85.7617 154.534 86.3407 154.997 87.1283C155.46 87.9158 155.692 88.9233 155.692 90.1509V92.8262H146.033C146.033 92.3398 146.137 91.9345 146.346 91.6102C146.578 91.2627 146.994 91.089 147.597 91.089H151.071L151.036 90.3594C151.036 89.4098 150.839 88.7033 150.446 88.2401C150.075 87.7536 149.369 87.5104 148.326 87.5104C147.469 87.5104 146.798 87.6494 146.311 87.9274C145.848 88.1821 145.524 88.6454 145.338 89.3171C145.176 89.9656 145.095 90.9037 145.095 92.1313C145.095 93.2431 145.199 94.077 145.408 94.6329C145.639 95.1888 146.045 95.5709 146.624 95.7794C147.203 95.9647 148.025 96.0574 149.091 96.0574C149.484 96.0574 150.017 96.0458 150.689 96.0226C151.361 95.9995 152.044 95.9763 152.739 95.9531C153.457 95.9068 154.082 95.8721 154.615 95.8489C155.171 95.8026 155.518 95.7562 155.657 95.7099V96.3353C155.657 96.6596 155.599 97.007 155.484 97.3776C155.391 97.7251 155.194 98.0146 154.893 98.2462C154.476 98.5705 153.7 98.7789 152.565 98.8716C151.453 98.9642 149.925 99.0106 147.979 99.0106Z" fill="#37393D"/>
<path d="M167.007 99.0106C164.922 99.0106 163.243 98.8368 161.969 98.4894C160.718 98.1188 159.803 97.4471 159.224 96.4743C158.669 95.4783 158.391 94.0422 158.391 92.1661C158.391 90.1278 158.669 88.5759 159.224 87.5104C159.803 86.445 160.718 85.7154 161.969 85.3216C163.243 84.9278 164.922 84.7309 167.007 84.7309C167.609 84.7309 168.188 84.7657 168.744 84.8352C169.323 84.8815 170.018 84.9626 170.829 85.0784C171.292 85.1247 171.663 85.2289 171.941 85.3911C172.242 85.5532 172.462 85.8196 172.601 86.1902C172.74 86.5608 172.809 87.1167 172.809 87.8579C172.554 87.7652 172.161 87.6842 171.628 87.6147C171.118 87.522 170.562 87.4525 169.96 87.4062C169.358 87.3599 168.825 87.3367 168.362 87.3367C167.181 87.3367 166.243 87.4757 165.548 87.7536C164.876 88.0316 164.39 88.4948 164.089 89.1434C163.811 89.7919 163.672 90.6837 163.672 91.8186C163.672 92.9304 163.811 93.8106 164.089 94.4592C164.39 95.1077 164.876 95.5709 165.548 95.8489C166.243 96.1268 167.181 96.2658 168.362 96.2658C168.895 96.2658 169.451 96.2427 170.03 96.1963C170.632 96.15 171.176 96.0921 171.663 96.0226C172.172 95.93 172.554 95.8373 172.809 95.7447V97.1344C172.809 97.7135 172.543 98.142 172.01 98.4199C171.5 98.6747 170.806 98.8368 169.925 98.9063C169.045 98.9758 168.072 99.0106 167.007 99.0106Z" fill="#37393D"/>
<path d="M181.448 98.9411C180.198 98.9411 179.213 98.8137 178.495 98.5589C177.8 98.2809 177.314 97.8409 177.036 97.2386C176.758 96.6133 176.619 95.7562 176.619 94.6676V87.6494H175.125V84.9394H176.619V83.1675C176.619 82.5884 176.654 82.1599 176.723 81.882C176.816 81.604 176.99 81.4303 177.244 81.3608C177.499 81.2913 177.905 81.2566 178.46 81.2566H181.796C181.796 81.3492 181.796 81.4651 181.796 81.604C181.796 81.743 181.796 81.9167 181.796 82.1252V84.9394H185.166V87.6494H181.831V94.2507C181.831 95.1772 181.912 95.8489 182.074 96.2658C182.259 96.6827 182.734 96.8912 183.498 96.8912C183.707 96.8912 183.973 96.868 184.297 96.8217C184.645 96.7754 184.888 96.7291 185.027 96.6827V98.5936C184.865 98.6168 184.459 98.6863 183.811 98.8021C183.186 98.8948 182.398 98.9411 181.448 98.9411Z" fill="#37393D"/>
<path d="M48.5559 120.305C49.2594 120.305 49.8066 120.18 50.1975 119.928C50.5884 119.667 50.7838 119.25 50.7838 118.677C50.7838 118.347 50.7187 118.073 50.5884 117.856C50.4668 117.63 50.3017 117.443 50.0933 117.296C49.8848 117.139 49.6459 117.009 49.3767 116.905C49.1074 116.792 48.8251 116.675 48.5298 116.553C48.1563 116.405 47.8219 116.253 47.5266 116.097C47.2313 115.941 46.9794 115.767 46.7709 115.576C46.5624 115.376 46.4018 115.15 46.2888 114.898C46.1846 114.647 46.1325 114.351 46.1325 114.013C46.1325 113.239 46.3887 112.653 46.9012 112.254C47.4137 111.854 48.1259 111.654 49.0379 111.654C49.2811 111.654 49.52 111.672 49.7545 111.706C49.989 111.741 50.2062 111.789 50.406 111.85C50.6144 111.902 50.8012 111.963 50.9662 112.032C51.1399 112.102 51.2832 112.175 51.3962 112.254L51.0835 112.996C50.8316 112.823 50.5232 112.684 50.1584 112.579C49.8023 112.475 49.4158 112.423 48.9988 112.423C48.7122 112.423 48.4473 112.453 48.2041 112.514C47.9696 112.566 47.7654 112.658 47.5917 112.788C47.418 112.909 47.279 113.066 47.1748 113.257C47.0793 113.448 47.0315 113.678 47.0315 113.947C47.0315 114.225 47.0836 114.46 47.1878 114.651C47.2921 114.842 47.4354 115.007 47.6178 115.146C47.8089 115.285 48.0304 115.411 48.2823 115.524C48.5341 115.637 48.8078 115.754 49.1031 115.876C49.4592 116.023 49.7936 116.171 50.1063 116.319C50.4277 116.466 50.7056 116.64 50.9401 116.84C51.1747 117.04 51.3614 117.283 51.5004 117.569C51.6394 117.856 51.7088 118.208 51.7088 118.625C51.7088 119.441 51.4222 120.054 50.8489 120.462C50.2844 120.87 49.5157 121.074 48.5428 121.074C48.1954 121.074 47.8784 121.052 47.5917 121.009C47.3051 120.966 47.0489 120.913 46.823 120.853C46.5972 120.783 46.4061 120.714 46.2498 120.644C46.0934 120.575 45.9718 120.514 45.8849 120.462L46.1716 119.693C46.2584 119.745 46.3757 119.806 46.5234 119.875C46.671 119.945 46.8447 120.014 47.0445 120.084C47.2443 120.145 47.4701 120.197 47.722 120.24C47.9739 120.284 48.2519 120.305 48.5559 120.305Z" fill="#737680"/>
<path d="M53.2932 114.377C53.5451 114.308 53.8708 114.23 54.2703 114.143C54.6786 114.056 55.2041 114.013 55.8468 114.013C56.698 114.013 57.3147 114.26 57.6969 114.755C57.7403 114.72 57.8229 114.664 57.9445 114.586C58.0748 114.499 58.2354 114.412 58.4265 114.325C58.6176 114.238 58.8391 114.165 59.091 114.104C59.3516 114.043 59.6382 114.013 59.9509 114.013C60.4634 114.013 60.876 114.091 61.1887 114.247C61.51 114.395 61.7576 114.608 61.9313 114.885C62.105 115.155 62.2223 115.48 62.2831 115.863C62.3439 116.245 62.3743 116.662 62.3743 117.113V120.879H61.5274V117.387C61.5274 116.944 61.5057 116.562 61.4623 116.24C61.4275 115.91 61.3493 115.641 61.2277 115.433C61.1148 115.216 60.9498 115.055 60.7326 114.951C60.5155 114.838 60.2332 114.781 59.8858 114.781C59.6252 114.781 59.3863 114.807 59.1692 114.859C58.9607 114.903 58.7783 114.959 58.622 115.029C58.4656 115.098 58.3353 115.168 58.2311 115.237C58.1356 115.307 58.0661 115.359 58.0226 115.394C58.1008 115.619 58.1573 115.876 58.192 116.162C58.2354 116.44 58.2572 116.736 58.2572 117.048V120.879H57.4103V117.387C57.4103 116.944 57.3886 116.562 57.3451 116.24C57.3104 115.91 57.2322 115.641 57.1106 115.433C56.989 115.216 56.8153 115.055 56.5895 114.951C56.3723 114.838 56.0813 114.781 55.7165 114.781C55.3083 114.781 54.9609 114.803 54.6742 114.846C54.3963 114.89 54.2182 114.929 54.14 114.964V120.879H53.2932V114.377Z" fill="#737680"/>
<path d="M66.6644 120.266C66.9945 120.266 67.2811 120.258 67.5243 120.24C67.7762 120.214 67.989 120.184 68.1627 120.149V117.778C68.0672 117.734 67.9152 117.691 67.7067 117.648C67.4983 117.595 67.2116 117.569 66.8468 117.569C66.6384 117.569 66.4212 117.587 66.1954 117.622C65.9696 117.648 65.7611 117.713 65.57 117.817C65.3789 117.912 65.2226 118.047 65.101 118.221C64.9794 118.395 64.9186 118.625 64.9186 118.911C64.9186 119.163 64.9577 119.376 65.0358 119.55C65.1227 119.723 65.2399 119.862 65.3876 119.967C65.544 120.071 65.7264 120.149 65.9348 120.201C66.152 120.245 66.3952 120.266 66.6644 120.266ZM66.5863 113.986C67.0292 113.986 67.4027 114.052 67.7067 114.182C68.0194 114.303 68.2713 114.477 68.4624 114.703C68.6535 114.92 68.7925 115.181 68.8793 115.485C68.9662 115.789 69.0096 116.119 69.0096 116.475V120.722C68.9228 120.748 68.7968 120.779 68.6318 120.814C68.4668 120.84 68.2757 120.87 68.0585 120.905C67.8414 120.94 67.5982 120.966 67.3289 120.983C67.0683 121.009 66.7991 121.022 66.5211 121.022C66.165 121.022 65.8349 120.983 65.5309 120.905C65.2356 120.827 64.975 120.705 64.7492 120.54C64.532 120.366 64.3583 120.149 64.228 119.889C64.1064 119.619 64.0456 119.294 64.0456 118.911C64.0456 118.547 64.1151 118.234 64.2541 117.973C64.3931 117.713 64.5885 117.5 64.8404 117.335C65.0923 117.161 65.3919 117.035 65.7394 116.957C66.0868 116.879 66.4647 116.84 66.8729 116.84C66.9945 116.84 67.1204 116.848 67.2507 116.866C67.3897 116.875 67.52 116.892 67.6416 116.918C67.7719 116.935 67.8805 116.957 67.9673 116.983C68.0629 117 68.128 117.018 68.1627 117.035V116.618C68.1627 116.384 68.1454 116.158 68.1106 115.941C68.0759 115.715 67.9977 115.515 67.8761 115.341C67.7632 115.159 67.5982 115.016 67.381 114.912C67.1726 114.799 66.8946 114.742 66.5472 114.742C66.0521 114.742 65.6829 114.777 65.4397 114.846C65.1965 114.916 65.0185 114.972 64.9055 115.016L64.7883 114.273C64.9359 114.204 65.1618 114.138 65.4658 114.078C65.7785 114.017 66.152 113.986 66.5863 113.986Z" fill="#737680"/>
<path d="M73.4627 114.013C73.7407 114.013 74.0013 114.034 74.2445 114.078C74.4964 114.121 74.6701 114.165 74.7656 114.208L74.5963 114.938C74.5268 114.903 74.3834 114.868 74.1663 114.833C73.9578 114.79 73.6799 114.768 73.3325 114.768C72.9676 114.768 72.6723 114.794 72.4465 114.846C72.2293 114.898 72.086 114.942 72.0165 114.977V120.879H71.1697V114.455C71.3868 114.36 71.6865 114.264 72.0687 114.169C72.4508 114.065 72.9155 114.013 73.4627 114.013Z" fill="#737680"/>
<path d="M76.8375 114.143H79.5215V114.859H76.8375V118.442C76.8375 118.825 76.8679 119.137 76.9287 119.38C76.9982 119.615 77.0938 119.797 77.2154 119.928C77.337 120.058 77.4846 120.145 77.6583 120.188C77.8321 120.232 78.0231 120.253 78.2316 120.253C78.5877 120.253 78.8744 120.214 79.0915 120.136C79.3087 120.049 79.478 119.971 79.5996 119.902L79.8081 120.605C79.6865 120.683 79.4737 120.774 79.1697 120.879C78.8657 120.974 78.5356 121.022 78.1795 121.022C77.7626 121.022 77.4108 120.97 77.1242 120.866C76.8462 120.753 76.6204 120.588 76.4466 120.371C76.2816 120.145 76.1644 119.867 76.0949 119.537C76.0254 119.207 75.9906 118.816 75.9906 118.364V112.162L76.8375 112.006V114.143Z" fill="#737680"/>
<path d="M87.8503 121.074C87.2683 121.074 86.7254 120.97 86.2216 120.761C85.7265 120.553 85.2923 120.249 84.9188 119.849C84.554 119.45 84.263 118.959 84.0458 118.377C83.8374 117.787 83.7331 117.113 83.7331 116.358C83.7331 115.602 83.8461 114.933 84.0719 114.351C84.3064 113.761 84.6148 113.266 84.9969 112.866C85.3791 112.466 85.8221 112.167 86.3259 111.967C86.8297 111.759 87.3552 111.654 87.9024 111.654C88.2411 111.654 88.5495 111.676 88.8274 111.719C89.1054 111.763 89.3486 111.819 89.557 111.889C89.7655 111.95 89.9436 112.015 90.0912 112.084C90.2389 112.145 90.3518 112.202 90.43 112.254L90.1433 113.022C89.9262 112.892 89.6482 112.766 89.3095 112.644C88.9794 112.514 88.5668 112.449 88.0717 112.449C87.5072 112.449 87.0121 112.545 86.5864 112.736C86.1695 112.927 85.8177 113.196 85.5311 113.543C85.2445 113.891 85.0273 114.303 84.8797 114.781C84.7407 115.259 84.6712 115.789 84.6712 116.371C84.6712 116.97 84.7407 117.513 84.8797 117.999C85.0273 118.477 85.2401 118.885 85.5181 119.224C85.796 119.563 86.1348 119.823 86.5343 120.006C86.9426 120.188 87.4073 120.279 87.9284 120.279C88.5017 120.279 88.9794 120.227 89.3616 120.123C89.7525 120.01 90.0478 119.897 90.2476 119.784L90.4951 120.54C90.4343 120.583 90.3301 120.636 90.1824 120.696C90.0348 120.748 89.848 120.805 89.6222 120.866C89.3963 120.926 89.1358 120.974 88.8404 121.009C88.5451 121.052 88.2151 121.074 87.8503 121.074Z" fill="#737680"/>
<path d="M94.2784 114.013C94.5563 114.013 94.8169 114.034 95.0601 114.078C95.312 114.121 95.4857 114.165 95.5812 114.208L95.4119 114.938C95.3424 114.903 95.1991 114.868 94.9819 114.833C94.7735 114.79 94.4955 114.768 94.1481 114.768C93.7833 114.768 93.4879 114.794 93.2621 114.846C93.045 114.898 92.9016 114.942 92.8322 114.977V120.879H91.9853V114.455C92.2024 114.36 92.5021 114.264 92.8843 114.169C93.2664 114.065 93.7311 114.013 94.2784 114.013Z" fill="#737680"/>
<path d="M96.4545 117.504C96.4545 116.914 96.537 116.401 96.702 115.967C96.8757 115.524 97.0972 115.155 97.3665 114.859C97.6444 114.564 97.9571 114.347 98.3046 114.208C98.6607 114.06 99.0255 113.986 99.399 113.986C100.224 113.986 100.88 114.256 101.366 114.794C101.861 115.333 102.109 116.162 102.109 117.283C102.109 117.352 102.105 117.422 102.096 117.491C102.096 117.561 102.092 117.626 102.083 117.687H97.3535C97.3795 118.512 97.5836 119.146 97.9658 119.589C98.348 120.032 98.956 120.253 99.7899 120.253C100.25 120.253 100.615 120.21 100.884 120.123C101.154 120.036 101.349 119.962 101.471 119.902L101.627 120.631C101.505 120.701 101.275 120.783 100.936 120.879C100.606 120.974 100.215 121.022 99.7638 121.022C99.1732 121.022 98.6694 120.935 98.2525 120.761C97.8355 120.588 97.4924 120.345 97.2232 120.032C96.9539 119.719 96.7585 119.35 96.6369 118.924C96.5153 118.49 96.4545 118.017 96.4545 117.504ZM101.236 116.97C101.219 116.267 101.054 115.719 100.741 115.328C100.428 114.938 99.9853 114.742 99.412 114.742C99.108 114.742 98.8344 114.803 98.5912 114.925C98.3567 115.046 98.1482 115.211 97.9658 115.42C97.7921 115.619 97.6531 115.854 97.5489 116.123C97.4534 116.392 97.3969 116.675 97.3795 116.97H101.236Z" fill="#737680"/>
<path d="M108.335 114.143C108.413 114.577 108.513 115.042 108.635 115.537C108.765 116.023 108.904 116.523 109.051 117.035C109.208 117.539 109.368 118.038 109.534 118.534C109.707 119.029 109.881 119.493 110.055 119.928C110.202 119.598 110.359 119.198 110.524 118.729C110.689 118.251 110.854 117.752 111.019 117.231C111.184 116.701 111.336 116.171 111.475 115.641C111.622 115.103 111.744 114.603 111.84 114.143H112.673C112.361 115.463 112.018 116.67 111.644 117.765C111.279 118.859 110.875 119.897 110.432 120.879H109.638C109.507 120.575 109.368 120.236 109.221 119.862C109.082 119.48 108.934 119.076 108.778 118.651C108.63 118.216 108.483 117.765 108.335 117.296C108.196 116.818 108.061 116.332 107.931 115.837C107.801 116.332 107.662 116.818 107.514 117.296C107.375 117.765 107.227 118.216 107.071 118.651C106.923 119.076 106.776 119.48 106.628 119.862C106.489 120.236 106.354 120.575 106.224 120.879H105.416C104.973 119.897 104.565 118.859 104.192 117.765C103.827 116.67 103.488 115.463 103.175 114.143H104.074C104.17 114.603 104.287 115.103 104.426 115.641C104.574 116.171 104.73 116.701 104.895 117.231C105.06 117.752 105.225 118.247 105.39 118.716C105.564 119.185 105.725 119.585 105.872 119.915C106.037 119.48 106.202 119.016 106.367 118.52C106.541 118.025 106.702 117.526 106.85 117.022C106.997 116.518 107.136 116.023 107.266 115.537C107.397 115.042 107.51 114.577 107.605 114.143H108.335Z" fill="#737680"/>
<path d="M123.187 120.879C123.022 120.436 122.865 120.01 122.718 119.602C122.57 119.194 122.427 118.794 122.288 118.403H117.897C117.749 118.794 117.602 119.194 117.454 119.602C117.306 120.01 117.154 120.436 116.998 120.879H116.073C116.421 119.941 116.746 119.068 117.05 118.26C117.354 117.443 117.65 116.675 117.936 115.954C118.232 115.224 118.522 114.525 118.809 113.856C119.096 113.187 119.4 112.519 119.721 111.85H120.503C120.824 112.519 121.128 113.187 121.415 113.856C121.702 114.525 121.988 115.224 122.275 115.954C122.57 116.675 122.87 117.443 123.174 118.26C123.478 119.068 123.808 119.941 124.164 120.879H123.187ZM120.086 112.866C119.756 113.613 119.435 114.373 119.122 115.146C118.818 115.919 118.501 116.753 118.171 117.648H122.014C121.684 116.753 121.363 115.919 121.05 115.146C120.737 114.373 120.416 113.613 120.086 112.866Z" fill="#737680"/>
<path d="M126.257 119.667C126.335 119.728 126.43 119.793 126.543 119.862C126.665 119.932 126.804 119.997 126.96 120.058C127.117 120.119 127.286 120.171 127.468 120.214C127.651 120.249 127.842 120.266 128.042 120.266C128.459 120.266 128.806 120.197 129.084 120.058C129.371 119.91 129.601 119.715 129.775 119.472C129.948 119.22 130.074 118.929 130.152 118.599C130.231 118.26 130.27 117.904 130.27 117.53C130.27 116.644 130.048 115.967 129.605 115.498C129.162 115.02 128.576 114.781 127.846 114.781C127.429 114.781 127.091 114.803 126.83 114.846C126.578 114.881 126.387 114.92 126.257 114.964V119.667ZM126.257 123.289H125.41V114.377C125.662 114.29 125.983 114.208 126.374 114.13C126.765 114.052 127.26 114.013 127.859 114.013C128.354 114.013 128.802 114.095 129.201 114.26C129.609 114.416 129.957 114.647 130.244 114.951C130.539 115.255 130.765 115.624 130.921 116.058C131.086 116.492 131.169 116.983 131.169 117.53C131.169 118.043 131.099 118.516 130.96 118.95C130.83 119.376 130.634 119.745 130.374 120.058C130.113 120.362 129.792 120.601 129.41 120.774C129.036 120.948 128.606 121.035 128.12 121.035C127.677 121.035 127.29 120.974 126.96 120.853C126.639 120.722 126.404 120.601 126.257 120.488V123.289Z" fill="#737680"/>
<path d="M133.853 119.667C133.931 119.728 134.026 119.793 134.139 119.862C134.261 119.932 134.4 119.997 134.556 120.058C134.713 120.119 134.882 120.171 135.064 120.214C135.247 120.249 135.438 120.266 135.638 120.266C136.055 120.266 136.402 120.197 136.68 120.058C136.967 119.91 137.197 119.715 137.37 119.472C137.544 119.22 137.67 118.929 137.748 118.599C137.826 118.26 137.866 117.904 137.866 117.53C137.866 116.644 137.644 115.967 137.201 115.498C136.758 115.02 136.172 114.781 135.442 114.781C135.025 114.781 134.687 114.803 134.426 114.846C134.174 114.881 133.983 114.92 133.853 114.964V119.667ZM133.853 123.289H133.006V114.377C133.258 114.29 133.579 114.208 133.97 114.13C134.361 114.052 134.856 114.013 135.455 114.013C135.95 114.013 136.398 114.095 136.797 114.26C137.205 114.416 137.553 114.647 137.839 114.951C138.135 115.255 138.361 115.624 138.517 116.058C138.682 116.492 138.765 116.983 138.765 117.53C138.765 118.043 138.695 118.516 138.556 118.95C138.426 119.376 138.23 119.745 137.97 120.058C137.709 120.362 137.388 120.601 137.006 120.774C136.632 120.948 136.202 121.035 135.716 121.035C135.273 121.035 134.886 120.974 134.556 120.853C134.235 120.722 134 120.601 133.853 120.488V123.289Z" fill="#737680"/>
<defs>
<linearGradient id="paint0_linear_3521_14592" x1="92.4906" y1="4.27515" x2="92.4906" y2="61.2085" gradientUnits="userSpaceOnUse">
<stop stop-color="#2E57FA"/>
<stop offset="1" stop-color="#052DCC"/>
</linearGradient>
</defs>
</svg>
