<svg width="33" height="34" viewBox="0 0 33 34" fill="none" xmlns="http://www.w3.org/2000/svg">
<path d="M16.256 31.2865C12.4404 28.0365 9.5843 25.0234 7.68776 22.2474C5.79123 19.4714 4.84296 16.9097 4.84296 14.5625C4.84296 10.9965 5.98878 8.15842 8.28043 6.04818C10.5721 3.93793 13.2306 2.88281 16.256 2.88281C19.2815 2.88281 21.94 3.93793 24.2317 6.04818C26.5233 8.15842 27.6691 10.9965 27.6691 14.5625C27.6691 16.9097 26.7209 19.4714 24.8243 22.2474C22.9278 25.0234 20.0717 28.0365 16.256 31.2865Z" fill="url(#paint0_linear_3521_14775)"/>
<path d="M14.4096 19.7083V18.7858L15.4145 18.0502V15.3075L11.018 16.5916V15.4446L15.4145 12.8764V10.0714C15.4145 9.83865 15.4961 9.64126 15.6594 9.47919C15.8227 9.31712 16.0216 9.23608 16.2561 9.23608C16.4905 9.23608 16.6894 9.31712 16.8527 9.47919C17.016 9.64126 17.0977 9.83865 17.0977 10.0714V12.8764L21.4941 15.4446V16.5916L17.0977 15.3075V18.0502L18.1026 18.7858V19.7083L16.2561 19.1972L14.4096 19.7083Z" fill="white"/>
<defs>
<linearGradient id="paint0_linear_3521_14775" x1="16.256" y1="2.88281" x2="16.256" y2="31.2865" gradientUnits="userSpaceOnUse">
<stop stop-color="#2E57FA"/>
<stop offset="1" stop-color="#052DCC"/>
</linearGradient>
</defs>
</svg>
