<svg width="40" height="40" viewBox="0 0 40 40" fill="none" xmlns="http://www.w3.org/2000/svg">
<path d="M20 39.75C17.2 39.75 14.6 39.2417 12.2 38.225C9.8 37.2083 7.71667 35.8167 5.95 34.05C4.18333 32.2833 2.79167 30.2 1.775 27.8C0.758333 25.4 0.25 22.8 0.25 20C0.25 17.2 0.758333 14.6 1.775 12.2C2.79167 9.8 4.18333 7.71667 5.95 5.95C7.71667 4.18333 9.8 2.79167 12.2 1.775C14.6 0.758333 17.2 0.25 20 0.25C22.5 0.25 24.8333 0.65 27 1.45C29.1667 2.25 31.1167 3.35 32.85 4.75L30.75 6.8C29.2833 5.63333 27.65 4.725 25.85 4.075C24.05 3.425 22.1 3.1 20 3.1C15.2 3.1 11.1917 4.71667 7.975 7.95C4.75833 11.1833 3.15 15.2 3.15 20C3.15 24.8 4.75833 28.8083 7.975 32.025C11.1917 35.2417 15.2 36.85 20 36.85C24.8 36.85 28.8167 35.2417 32.05 32.025C35.2833 28.8083 36.9 24.8 36.9 20C36.9 18.9667 36.8167 17.9667 36.65 17C36.4833 16.0333 36.25 15.0833 35.95 14.15L38.15 12C38.6833 13.2333 39.0833 14.5167 39.35 15.85C39.6167 17.1833 39.75 18.5667 39.75 20C39.75 22.8 39.2417 25.4 38.225 27.8C37.2083 30.2 35.8167 32.2833 34.05 34.05C32.2833 35.8167 30.2 37.2083 27.8 38.225C25.4 39.2417 22.8 39.75 20 39.75ZM17.1 28.95L8.95 20.8L11.15 18.6L17.1 24.55L37.6 4.05L39.8 6.25L17.1 28.95Z" fill="#33AA16"/>
</svg>
