<svg width="20" height="21" viewBox="0 0 20 21" fill="none" xmlns="http://www.w3.org/2000/svg">
<path d="M8.91701 12.9541L13.25 8.66211L12.792 8.20411L8.91701 12.0581L7.16701 10.3501L6.72901 10.7881L8.91701 12.9541ZM10 17.6421C9.04134 17.6421 8.13167 17.4581 7.27101 17.0901C6.40967 16.7221 5.65967 16.2151 5.02101 15.5691C4.38167 14.9231 3.87801 14.1731 3.51001 13.3191C3.14201 12.4651 2.95801 11.5588 2.95801 10.6001C2.95801 9.62811 3.14201 8.71477 3.51001 7.86011C3.87801 7.00611 4.38501 6.25977 5.03101 5.62111C5.67701 4.98177 6.42701 4.47811 7.28101 4.11011C8.13501 3.74211 9.04134 3.55811 10 3.55811C10.972 3.55811 11.8853 3.74211 12.74 4.11011C13.594 4.47811 14.3403 4.98511 14.979 5.63111C15.6183 6.27711 16.122 7.02377 16.49 7.87111C16.858 8.71844 17.042 9.62811 17.042 10.6001C17.042 11.5588 16.858 12.4684 16.49 13.3291C16.122 14.1904 15.615 14.9404 14.969 15.5791C14.323 16.2184 13.5763 16.7221 12.729 17.0901C11.8817 17.4581 10.972 17.6421 10 17.6421ZM10 17.0381C11.778 17.0381 13.2953 16.4094 14.552 15.1521C15.8093 13.8954 16.438 12.3781 16.438 10.6001C16.438 8.82211 15.8093 7.30477 14.552 6.04811C13.2953 4.79077 11.778 4.16211 10 4.16211C8.22201 4.16211 6.70467 4.79077 5.44801 6.04811C4.19067 7.30477 3.56201 8.82211 3.56201 10.6001C3.56201 12.3781 4.19067 13.8954 5.44801 15.1521C6.70467 16.4094 8.22201 17.0381 10 17.0381Z" fill="#818590"/>
</svg>
