<svg width="20" height="21" viewBox="0 0 20 21" fill="none" xmlns="http://www.w3.org/2000/svg">
<path d="M8.625 10.9917C8.47233 10.9917 8.34733 10.929 8.25 10.8037C8.15267 10.679 8.125 10.547 8.167 10.4077L8.458 8.9707C8.514 8.59537 8.69467 8.29337 9 8.0647C9.30533 7.83537 9.63867 7.7207 10 7.7207C10.3613 7.7207 10.6947 7.83537 11 8.0647C11.3053 8.29337 11.486 8.59537 11.542 8.9707L11.833 10.4077C11.861 10.561 11.83 10.6967 11.74 10.8147C11.6493 10.9327 11.5277 10.9917 11.375 10.9917H8.625ZM8.792 10.3877H11.208L10.958 9.0957C10.9027 8.87304 10.7847 8.68904 10.604 8.5437C10.4233 8.3977 10.222 8.3247 10 8.3247C9.778 8.3247 9.57667 8.3977 9.396 8.5437C9.21533 8.68904 9.104 8.87304 9.062 9.0957L8.792 10.3877ZM3.312 11.7617C3.104 11.7757 2.92367 11.7344 2.771 11.6377C2.61833 11.5404 2.521 11.4014 2.479 11.2207C2.45167 11.1374 2.44833 11.0504 2.469 10.9597C2.48967 10.8697 2.514 10.79 2.542 10.7207C2.542 10.7067 2.535 10.6927 2.521 10.6787C2.479 10.6374 2.43733 10.5264 2.396 10.3457C2.382 10.2344 2.396 10.1337 2.438 10.0437C2.47933 9.95304 2.54167 9.87304 2.625 9.8037C2.639 9.8037 2.646 9.7897 2.646 9.7617C2.66 9.60904 2.733 9.4667 2.865 9.3347C2.99633 9.20337 3.13867 9.1377 3.292 9.1377C3.33333 9.1377 3.43033 9.16537 3.583 9.2207H3.604C3.66 9.16537 3.719 9.12004 3.781 9.0847C3.84367 9.05004 3.91667 9.0327 4 9.0327C4.08333 9.0327 4.16667 9.05004 4.25 9.0847C4.33333 9.12004 4.40267 9.17237 4.458 9.2417L4.469 9.2517C4.47567 9.25837 4.486 9.2617 4.5 9.2617C4.61133 9.2757 4.712 9.32104 4.802 9.3977C4.89267 9.4737 4.96567 9.56737 5.021 9.6787C5.04833 9.73404 5.05867 9.7897 5.052 9.8457C5.04533 9.90104 5.028 9.95637 5 10.0117L5.021 10.0747C5.07633 10.13 5.125 10.196 5.167 10.2727C5.20833 10.3494 5.229 10.429 5.229 10.5117L5.167 10.7827V10.8457C5.181 10.8737 5.188 10.95 5.188 11.0747C5.188 11.2694 5.10467 11.4327 4.938 11.5647C4.77133 11.696 4.57667 11.7617 4.354 11.7617H3.312ZM16.104 11.8247C15.8267 11.8247 15.5907 11.7274 15.396 11.5327C15.2013 11.3387 15.104 11.1027 15.104 10.8247C15.104 10.7274 15.1213 10.6337 15.156 10.5437C15.1907 10.453 15.229 10.366 15.271 10.2827L14.792 9.8877C14.7227 9.8037 14.7053 9.7167 14.74 9.6267C14.7747 9.5367 14.8543 9.4917 14.979 9.4917H16.104C16.368 9.4917 16.5973 9.58537 16.792 9.7727C16.986 9.96004 17.083 10.1927 17.083 10.4707V10.6997C17.083 11.005 16.9893 11.269 16.802 11.4917C16.6147 11.7137 16.382 11.8247 16.104 11.8247ZM0.875 14.8037V14.1997C0.875 13.561 1.177 13.0854 1.781 12.7727C2.38567 12.46 3.10467 12.3037 3.938 12.3037C4.132 12.3037 4.32633 12.321 4.521 12.3557C4.715 12.3904 4.90933 12.4287 5.104 12.4707C4.93733 12.6514 4.809 12.8874 4.719 13.1787C4.62833 13.4707 4.583 13.7277 4.583 13.9497V14.8037H0.875ZM5.875 14.8037V14.0327C5.875 13.436 6.21867 12.957 6.906 12.5957C7.594 12.2344 8.62533 12.0537 10 12.0537C11.3747 12.0537 12.4093 12.2307 13.104 12.5847C13.7987 12.9394 14.146 13.415 14.146 14.0117V14.8037H5.875ZM16.083 12.3037C16.9023 12.3037 17.6177 12.46 18.229 12.7727C18.8403 13.0854 19.146 13.561 19.146 14.1997V14.8037H15.417V13.9497C15.417 13.7277 15.3753 13.4707 15.292 13.1787C15.2087 12.8874 15.0697 12.6514 14.875 12.4707C15.0697 12.4287 15.2677 12.3904 15.469 12.3557C15.6703 12.321 15.875 12.3037 16.083 12.3037ZM10 12.6577C8.972 12.6577 8.19433 12.762 7.667 12.9707C7.139 13.1787 6.72233 13.5327 6.417 14.0327V14.1997H13.562V14.0327C13.2567 13.5327 12.8437 13.1787 12.323 12.9707C11.8023 12.762 11.028 12.6577 10 12.6577Z" fill="#818590"/>
</svg>
