<svg width="16" height="16" viewBox="0 0 16 16" fill="none" xmlns="http://www.w3.org/2000/svg">
<path d="M8 0C6.41775 0 4.87103 0.469192 3.55544 1.34824C2.23985 2.22729 1.21447 3.47672 0.608967 4.93853C0.00346625 6.40034 -0.15496 8.00887 0.153721 9.56072C0.462403 11.1126 1.22433 12.538 2.34315 13.6569C3.46197 14.7757 4.88743 15.5376 6.43928 15.8463C7.99113 16.155 9.59966 15.9965 11.0615 15.391C12.5233 14.7855 13.7727 13.7602 14.6518 12.4446C15.5308 11.129 16 9.58225 16 8C16 5.87827 15.1571 3.84344 13.6569 2.34315C12.1566 0.842855 10.1217 0 8 0ZM8 14.5C6.30647 14.4066 4.70691 13.6918 3.50758 12.4924C2.30825 11.2931 1.59343 9.69353 1.5 8C1.59343 6.30647 2.30825 4.7069 3.50758 3.50757C4.70691 2.30824 6.30647 1.59343 8 1.5C9.69354 1.59343 11.2931 2.30824 12.4924 3.50757C13.6918 4.7069 14.4066 6.30647 14.5 8C14.4066 9.69353 13.6918 11.2931 12.4924 12.4924C11.2931 13.6918 9.69354 14.4066 8 14.5ZM8.75 7.25H11V8.75H8.75V11H7.25V8.75H5V7.25H7.25V5H8.75V7.25Z" fill="#818590"/>
</svg>
