<svg width="16" height="16" viewBox="0 0 16 16" fill="none" xmlns="http://www.w3.org/2000/svg">
<path d="M8 1C6.61553 1 5.26216 1.41054 4.11101 2.17971C2.95987 2.94888 2.06266 4.04213 1.53285 5.32122C1.00303 6.6003 0.86441 8.00776 1.13451 9.36563C1.4046 10.7235 2.07129 11.9708 3.05026 12.9497C4.02922 13.9287 5.2765 14.5954 6.63437 14.8655C7.99224 15.1356 9.3997 14.997 10.6788 14.4672C11.9579 13.9373 13.0511 13.0401 13.8203 11.889C14.5895 10.7378 15 9.38447 15 8C15 6.14348 14.2625 4.36301 12.9497 3.05025C11.637 1.7375 9.85652 1 8 1ZM6.61 10.56H9.4C9.12597 11.6391 8.65101 12.6568 8 13.56C7.35065 12.6572 6.87894 11.6391 6.61 10.56ZM6.35 9.32C6.28576 8.88289 6.25234 8.4418 6.25 8C6.25307 7.52095 6.29319 7.04286 6.37 6.57H9.62C9.70294 7.04223 9.74642 7.52055 9.75 8C9.7477 8.42852 9.71428 8.85632 9.65 9.28L6.35 9.32ZM2.5 8C2.50379 7.53111 2.56423 7.06439 2.68 6.61H5.1C5.03232 7.07022 4.9989 7.53483 5 8C4.99908 8.44489 5.02916 8.88929 5.09 9.33H2.68C2.56603 8.89566 2.50558 8.44901 2.5 8ZM9.35 5.28H6.64C6.92282 4.2823 7.38356 3.3439 8 2.51C8.61069 3.34598 9.06781 4.28392 9.35 5.28ZM10.89 6.51H13.28C13.4216 6.99417 13.4956 7.49557 13.5 8C13.499 8.41392 13.4521 8.82645 13.36 9.23H10.92C10.971 8.82194 10.9977 8.41122 11 8C10.9993 7.50133 10.9626 7.00336 10.89 6.51ZM12.75 5.24H10.64C10.417 4.36348 10.0809 3.51972 9.64 2.73C10.9506 3.15484 12.0581 4.04868 12.75 5.24ZM6.36 2.75C5.91192 3.561 5.57554 4.42886 5.36 5.33H3.2C3.88366 4.09671 5.01488 3.17312 6.36 2.75ZM3.16 10.61H5.32C5.53181 11.5409 5.86817 12.439 6.32 13.28C4.95881 12.8361 3.82488 11.878 3.16 10.61ZM9.64 13.25C10.1006 12.3883 10.4373 11.4658 10.64 10.51H12.85C12.18 11.8084 11.0275 12.7921 9.64 13.25Z" fill="#818590"/>
</svg>
